<svg xmlns="http://www.w3.org/2000/svg" viewBox="217 78 252 329">
  <path d="M 337.153 81.635 C 330.582 86.395 298.728 118.534 287.214 132.021 C 250.024 175.582 230.029 210.422 221.499 246.521 C 219.623 254.46 218.888 260.923 218.484 273.021 C 217.851 292.016 219.392 303.511 224.7 319.375 C 242.376 372.198 289.248 406.521 343.71 406.521 C 365.326 406.521 380.424 403.017 399.651 393.539 C 435.197 376.015 459.181 344.344 467.818 303.521 C 470.311 291.737 470.304 263.674 467.805 251.021 C 458.832 205.6 428.32 157.707 373.172 102.477 C 354.861 84.139 348.069 78.521 344.211 78.521 C 342.693 78.521 339.517 79.922 337.153 81.635 M 331.551 111.771 C 295.893 146.001 266.133 184.9 251.205 216.79 C 227.856 266.669 232.25 314.912 263.492 351.708 C 276.192 366.666 297.437 379.804 317.651 385.201 C 326.52 387.57 329.517 387.876 344.151 387.914 C 359.113 387.953 361.571 387.703 370.521 385.231 C 425.507 370.043 459.384 317.34 450.685 260.521 C 444.988 223.317 425.69 187.562 387.926 144.247 C 377.419 132.196 345.977 100.521 344.521 100.521 C 343.833 100.521 337.997 105.584 331.551 111.771 M 353.151 215.017 C 338.036 218.059 322.945 226.008 311.644 236.881 L 305.263 243.021 L 299.733 237.838 C 292.467 231.029 281.345 225.53 273.379 224.808 C 267.828 224.305 267.106 224.475 264.737 226.844 L 262.151 229.43 L 262.151 274.301 L 262.151 319.172 L 264.614 321.487 C 266.828 323.566 267.752 323.747 273.731 323.267 C 281.732 322.624 294.169 316.898 301.415 310.52 C 306.012 306.473 306.088 306.448 307.361 308.558 C 309.618 312.297 323.116 322.481 331.207 326.549 C 342.141 332.047 351.7 334.521 364.671 335.21 C 389.268 336.517 406.778 329.102 425.719 309.357 C 442.575 291.787 450.657 275.397 446.879 266.447 C 444.791 261.501 434.371 247.811 425.934 238.93 C 413.61 225.956 400.446 217.961 386.563 215.02 C 378.164 213.241 361.985 213.239 353.151 215.017 M 355.444 233.029 C 342.284 235.889 330.172 243.558 316.913 257.427 C 310.034 264.622 308.775 265.521 305.573 265.521 C 302.399 265.521 300.88 264.469 292.811 256.684 C 287.773 251.824 282.639 247.308 281.401 246.649 L 279.151 245.451 L 279.151 273.986 C 279.151 289.68 279.489 302.519 279.901 302.517 C 281.859 302.508 287.539 298.04 294.387 291.125 C 304.797 280.614 305.31 280.657 318.123 293.141 C 329.538 304.264 334.709 308.152 343.091 311.914 C 355.78 317.608 369.543 318.873 382.566 315.543 C 393.345 312.786 399.167 309.33 409.381 299.625 C 418.893 290.588 430.849 274.157 429.365 272.16 C 410.197 246.365 398.167 236.327 382.421 232.99 C 374.097 231.227 363.669 231.241 355.444 233.029 M 381.858 257.537 C 376.256 261.943 376.256 271.099 381.858 275.505 C 385.872 278.663 392.563 278.262 396.177 274.649 C 397.756 273.07 399.345 270.595 399.708 269.149 C 400.663 265.346 399.457 261.673 396.177 258.393 C 392.563 254.78 385.872 254.379 381.858 257.537"
        fill="currentColor" fill-rule="evenodd"/>
</svg>